<?xml version="1.0" encoding="UTF-8" standalone="no"?>
<!DOCTYPE svg PUBLIC "-//W3C//DTD SVG 1.1//EN"
 "http://www.w3.org/Graphics/SVG/1.1/DTD/svg11.dtd">
<!-- Generated by graphviz version 3.0.0 (20220413.0242)
 -->
<!-- Pages: 1 -->
<svg width="1364pt" height="692pt"
 viewBox="0.00 0.00 1363.51 692.00" xmlns="http://www.w3.org/2000/svg" xmlns:xlink="http://www.w3.org/1999/xlink">
<g id="graph0" class="graph" transform="scale(1 1) rotate(0) translate(4 688)">
<polygon fill="white" stroke="transparent" points="-4,4 -4,-688 1359.51,-688 1359.51,4 -4,4"/>
<!-- [root] azurerm_linux_virtual_machine.main (expand) -->
<g id="node1" class="node">
<title>[root] azurerm_linux_virtual_machine.main (expand)</title>
<polygon fill="none" stroke="black" points="826.74,-468 554.74,-468 554.74,-432 826.74,-432 826.74,-468"/>
<text text-anchor="middle" x="690.74" y="-446.3" font-family="Times,serif" font-size="14.00">azurerm_linux_virtual_machine.main</text>
</g>
<!-- [root] azurerm_network_interface.main (expand) -->
<g id="node2" class="node">
<title>[root] azurerm_network_interface.main (expand)</title>
<polygon fill="none" stroke="black" points="702.74,-396 460.74,-396 460.74,-360 702.74,-360 702.74,-396"/>
<text text-anchor="middle" x="581.74" y="-374.3" font-family="Times,serif" font-size="14.00">azurerm_network_interface.main</text>
</g>
<!-- [root] azurerm_linux_virtual_machine.main (expand)&#45;&gt;[root] azurerm_network_interface.main (expand) -->
<g id="edge1" class="edge">
<title>[root] azurerm_linux_virtual_machine.main (expand)&#45;&gt;[root] azurerm_network_interface.main (expand)</title>
<path fill="none" stroke="black" d="M664.08,-431.88C649.96,-422.81 632.43,-411.55 617.18,-401.76"/>
<polygon fill="black" stroke="black" points="618.82,-398.65 608.51,-396.19 615.03,-404.54 618.82,-398.65"/>
</g>
<!-- [root] var.image_reference -->
<g id="node12" class="node">
<title>[root] var.image_reference</title>
<polygon fill="none" stroke="black" points="873.24,-396 720.24,-396 720.24,-360 879.24,-360 879.24,-390 873.24,-396"/>
<polyline fill="none" stroke="black" points="873.24,-396 873.24,-390 "/>
<polyline fill="none" stroke="black" points="879.24,-390 873.24,-390 "/>
<text text-anchor="middle" x="799.74" y="-374.3" font-family="Times,serif" font-size="14.00">var.image_reference</text>
</g>
<!-- [root] azurerm_linux_virtual_machine.main (expand)&#45;&gt;[root] var.image_reference -->
<g id="edge2" class="edge">
<title>[root] azurerm_linux_virtual_machine.main (expand)&#45;&gt;[root] var.image_reference</title>
<path fill="none" stroke="black" d="M717.41,-431.88C731.53,-422.81 749.06,-411.55 764.3,-401.76"/>
<polygon fill="black" stroke="black" points="766.45,-404.54 772.98,-396.19 762.67,-398.65 766.45,-404.54"/>
</g>
<!-- [root] azurerm_public_ip.main (expand) -->
<g id="node3" class="node">
<title>[root] azurerm_public_ip.main (expand)</title>
<polygon fill="none" stroke="black" points="561.74,-252 379.74,-252 379.74,-216 561.74,-216 561.74,-252"/>
<text text-anchor="middle" x="470.74" y="-230.3" font-family="Times,serif" font-size="14.00">azurerm_public_ip.main</text>
</g>
<!-- [root] azurerm_network_interface.main (expand)&#45;&gt;[root] azurerm_public_ip.main (expand) -->
<g id="edge3" class="edge">
<title>[root] azurerm_network_interface.main (expand)&#45;&gt;[root] azurerm_public_ip.main (expand)</title>
<path fill="none" stroke="black" d="M568.35,-359.87C548.94,-335.03 512.83,-288.85 490.4,-260.14"/>
<polygon fill="black" stroke="black" points="493.1,-257.91 484.18,-252.19 487.58,-262.22 493.1,-257.91"/>
</g>
<!-- [root] azurerm_subnet.internal (expand) -->
<g id="node5" class="node">
<title>[root] azurerm_subnet.internal (expand)</title>
<polygon fill="none" stroke="black" points="763.24,-324 574.24,-324 574.24,-288 763.24,-288 763.24,-324"/>
<text text-anchor="middle" x="668.74" y="-302.3" font-family="Times,serif" font-size="14.00">azurerm_subnet.internal</text>
</g>
<!-- [root] azurerm_network_interface.main (expand)&#45;&gt;[root] azurerm_subnet.internal (expand) -->
<g id="edge4" class="edge">
<title>[root] azurerm_network_interface.main (expand)&#45;&gt;[root] azurerm_subnet.internal (expand)</title>
<path fill="none" stroke="black" d="M603.25,-359.7C614.21,-350.88 627.69,-340.03 639.57,-330.47"/>
<polygon fill="black" stroke="black" points="641.89,-333.1 647.49,-324.1 637.5,-327.65 641.89,-333.1"/>
</g>
<!-- [root] azurerm_resource_group.curso (expand) -->
<g id="node4" class="node">
<title>[root] azurerm_resource_group.curso (expand)</title>
<polygon fill="none" stroke="black" points="695.24,-180 468.24,-180 468.24,-144 695.24,-144 695.24,-180"/>
<text text-anchor="middle" x="581.74" y="-158.3" font-family="Times,serif" font-size="14.00">azurerm_resource_group.curso</text>
</g>
<!-- [root] azurerm_public_ip.main (expand)&#45;&gt;[root] azurerm_resource_group.curso (expand) -->
<g id="edge5" class="edge">
<title>[root] azurerm_public_ip.main (expand)&#45;&gt;[root] azurerm_resource_group.curso (expand)</title>
<path fill="none" stroke="black" d="M497.9,-215.88C512.28,-206.81 530.13,-195.55 545.65,-185.76"/>
<polygon fill="black" stroke="black" points="547.89,-188.48 554.49,-180.19 544.16,-182.56 547.89,-188.48"/>
</g>
<!-- [root] provider[&quot;registry.terraform.io/hashicorp/azurerm&quot;] -->
<g id="node9" class="node">
<title>[root] provider[&quot;registry.terraform.io/hashicorp/azurerm&quot;]</title>
<polygon fill="none" stroke="black" points="366.74,-108 -0.24,-90 366.74,-72 733.73,-90 366.74,-108"/>
<text text-anchor="middle" x="366.74" y="-86.3" font-family="Times,serif" font-size="14.00">provider[&quot;registry.terraform.io/hashicorp/azurerm&quot;]</text>
</g>
<!-- [root] azurerm_resource_group.curso (expand)&#45;&gt;[root] provider[&quot;registry.terraform.io/hashicorp/azurerm&quot;] -->
<g id="edge6" class="edge">
<title>[root] azurerm_resource_group.curso (expand)&#45;&gt;[root] provider[&quot;registry.terraform.io/hashicorp/azurerm&quot;]</title>
<path fill="none" stroke="black" d="M529.42,-143.97C496.84,-133.36 454.98,-119.73 421.88,-108.95"/>
<polygon fill="black" stroke="black" points="422.95,-105.62 412.36,-105.85 420.78,-112.27 422.95,-105.62"/>
</g>
<!-- [root] var.prefix -->
<g id="node13" class="node">
<title>[root] var.prefix</title>
<polygon fill="none" stroke="black" points="837.74,-108 751.74,-108 751.74,-72 843.74,-72 843.74,-102 837.74,-108"/>
<polyline fill="none" stroke="black" points="837.74,-108 837.74,-102 "/>
<polyline fill="none" stroke="black" points="843.74,-102 837.74,-102 "/>
<text text-anchor="middle" x="797.74" y="-86.3" font-family="Times,serif" font-size="14.00">var.prefix</text>
</g>
<!-- [root] azurerm_resource_group.curso (expand)&#45;&gt;[root] var.prefix -->
<g id="edge7" class="edge">
<title>[root] azurerm_resource_group.curso (expand)&#45;&gt;[root] var.prefix</title>
<path fill="none" stroke="black" d="M634.31,-143.97C666.93,-133.39 708.8,-119.82 742,-109.07"/>
<polygon fill="black" stroke="black" points="743.13,-112.38 751.56,-105.97 740.97,-105.72 743.13,-112.38"/>
</g>
<!-- [root] azurerm_virtual_network.main (expand) -->
<g id="node6" class="node">
<title>[root] azurerm_virtual_network.main (expand)</title>
<polygon fill="none" stroke="black" points="807.24,-252 580.24,-252 580.24,-216 807.24,-216 807.24,-252"/>
<text text-anchor="middle" x="693.74" y="-230.3" font-family="Times,serif" font-size="14.00">azurerm_virtual_network.main</text>
</g>
<!-- [root] azurerm_subnet.internal (expand)&#45;&gt;[root] azurerm_virtual_network.main (expand) -->
<g id="edge8" class="edge">
<title>[root] azurerm_subnet.internal (expand)&#45;&gt;[root] azurerm_virtual_network.main (expand)</title>
<path fill="none" stroke="black" d="M674.92,-287.7C677.74,-279.81 681.14,-270.3 684.26,-261.55"/>
<polygon fill="black" stroke="black" points="687.57,-262.7 687.64,-252.1 680.98,-260.34 687.57,-262.7"/>
</g>
<!-- [root] azurerm_virtual_network.main (expand)&#45;&gt;[root] azurerm_resource_group.curso (expand) -->
<g id="edge9" class="edge">
<title>[root] azurerm_virtual_network.main (expand)&#45;&gt;[root] azurerm_resource_group.curso (expand)</title>
<path fill="none" stroke="black" d="M666.35,-215.88C651.84,-206.81 633.83,-195.55 618.16,-185.76"/>
<polygon fill="black" stroke="black" points="619.58,-182.52 609.25,-180.19 615.87,-188.46 619.58,-182.52"/>
</g>
<!-- [root] data.azurerm_public_ip.main (expand) -->
<g id="node7" class="node">
<title>[root] data.azurerm_public_ip.main (expand)</title>
<polygon fill="none" stroke="black" points="800.24,-540 581.24,-540 581.24,-504 800.24,-504 800.24,-540"/>
<text text-anchor="middle" x="690.74" y="-518.3" font-family="Times,serif" font-size="14.00">data.azurerm_public_ip.main</text>
</g>
<!-- [root] data.azurerm_public_ip.main (expand)&#45;&gt;[root] azurerm_linux_virtual_machine.main (expand) -->
<g id="edge10" class="edge">
<title>[root] data.azurerm_public_ip.main (expand)&#45;&gt;[root] azurerm_linux_virtual_machine.main (expand)</title>
<path fill="none" stroke="black" d="M690.74,-503.7C690.74,-495.98 690.74,-486.71 690.74,-478.11"/>
<polygon fill="black" stroke="black" points="694.24,-478.1 690.74,-468.1 687.24,-478.1 694.24,-478.1"/>
</g>
<!-- [root] output.public_ip_address -->
<g id="node8" class="node">
<title>[root] output.public_ip_address</title>
<polygon fill="none" stroke="black" points="451.24,-612 260.24,-612 260.24,-576 457.24,-576 457.24,-606 451.24,-612"/>
<polyline fill="none" stroke="black" points="451.24,-612 451.24,-606 "/>
<polyline fill="none" stroke="black" points="457.24,-606 451.24,-606 "/>
<text text-anchor="middle" x="358.74" y="-590.3" font-family="Times,serif" font-size="14.00">output.public_ip_address</text>
</g>
<!-- [root] output.public_ip_address&#45;&gt;[root] data.azurerm_public_ip.main (expand) -->
<g id="edge11" class="edge">
<title>[root] output.public_ip_address&#45;&gt;[root] data.azurerm_public_ip.main (expand)</title>
<path fill="none" stroke="black" d="M439.54,-575.97C488.03,-565.74 549.84,-552.71 600.01,-542.13"/>
<polygon fill="black" stroke="black" points="600.82,-545.54 609.88,-540.05 599.37,-538.69 600.82,-545.54"/>
</g>
<!-- [root] var.azurerm_settings -->
<g id="node11" class="node">
<title>[root] var.azurerm_settings</title>
<polygon fill="none" stroke="black" points="444.24,-36 283.24,-36 283.24,0 450.24,0 450.24,-30 444.24,-36"/>
<polyline fill="none" stroke="black" points="444.24,-36 444.24,-30 "/>
<polyline fill="none" stroke="black" points="450.24,-30 444.24,-30 "/>
<text text-anchor="middle" x="366.74" y="-14.3" font-family="Times,serif" font-size="14.00">var.azurerm_settings</text>
</g>
<!-- [root] provider[&quot;registry.terraform.io/hashicorp/azurerm&quot;]&#45;&gt;[root] var.azurerm_settings -->
<g id="edge13" class="edge">
<title>[root] provider[&quot;registry.terraform.io/hashicorp/azurerm&quot;]&#45;&gt;[root] var.azurerm_settings</title>
<path fill="none" stroke="black" d="M366.74,-71.7C366.74,-63.98 366.74,-54.71 366.74,-46.11"/>
<polygon fill="black" stroke="black" points="370.24,-46.1 366.74,-36.1 363.24,-46.1 370.24,-46.1"/>
</g>
<!-- [root] var.azurerm_remote_state -->
<g id="node10" class="node">
<title>[root] var.azurerm_remote_state</title>
<polygon fill="none" stroke="black" points="666.24,-612 475.24,-612 475.24,-576 672.24,-576 672.24,-606 666.24,-612"/>
<polyline fill="none" stroke="black" points="666.24,-612 666.24,-606 "/>
<polyline fill="none" stroke="black" points="672.24,-606 666.24,-606 "/>
<text text-anchor="middle" x="573.74" y="-590.3" font-family="Times,serif" font-size="14.00">var.azurerm_remote_state</text>
</g>
<!-- [root] provider[&quot;registry.terraform.io/hashicorp/azurerm&quot;] (close) -->
<g id="node14" class="node">
<title>[root] provider[&quot;registry.terraform.io/hashicorp/azurerm&quot;] (close)</title>
<ellipse fill="none" stroke="black" cx="1022.74" cy="-594" rx="332.54" ry="18"/>
<text text-anchor="middle" x="1022.74" y="-590.3" font-family="Times,serif" font-size="14.00">[root] provider[&quot;registry.terraform.io/hashicorp/azurerm&quot;] (close)</text>
</g>
<!-- [root] provider[&quot;registry.terraform.io/hashicorp/azurerm&quot;] (close)&#45;&gt;[root] data.azurerm_public_ip.main (expand) -->
<g id="edge12" class="edge">
<title>[root] provider[&quot;registry.terraform.io/hashicorp/azurerm&quot;] (close)&#45;&gt;[root] data.azurerm_public_ip.main (expand)</title>
<path fill="none" stroke="black" d="M944.48,-576.5C895.69,-566.21 832.7,-552.93 781.69,-542.18"/>
<polygon fill="black" stroke="black" points="782.16,-538.7 771.65,-540.06 780.72,-545.55 782.16,-538.7"/>
</g>
<!-- [root] root -->
<g id="node15" class="node">
<title>[root] root</title>
<ellipse fill="none" stroke="black" cx="573.74" cy="-666" rx="64.19" ry="18"/>
<text text-anchor="middle" x="573.74" y="-662.3" font-family="Times,serif" font-size="14.00">[root] root</text>
</g>
<!-- [root] root&#45;&gt;[root] output.public_ip_address -->
<g id="edge14" class="edge">
<title>[root] root&#45;&gt;[root] output.public_ip_address</title>
<path fill="none" stroke="black" d="M533.56,-651.92C501.87,-641.6 457.13,-627.03 420.84,-615.22"/>
<polygon fill="black" stroke="black" points="421.92,-611.89 411.33,-612.12 419.76,-618.55 421.92,-611.89"/>
</g>
<!-- [root] root&#45;&gt;[root] var.azurerm_remote_state -->
<g id="edge16" class="edge">
<title>[root] root&#45;&gt;[root] var.azurerm_remote_state</title>
<path fill="none" stroke="black" d="M573.74,-647.7C573.74,-639.98 573.74,-630.71 573.74,-622.11"/>
<polygon fill="black" stroke="black" points="577.24,-622.1 573.74,-612.1 570.24,-622.1 577.24,-622.1"/>
</g>
<!-- [root] root&#45;&gt;[root] provider[&quot;registry.terraform.io/hashicorp/azurerm&quot;] (close) -->
<g id="edge15" class="edge">
<title>[root] root&#45;&gt;[root] provider[&quot;registry.terraform.io/hashicorp/azurerm&quot;] (close)</title>
<path fill="none" stroke="black" d="M628.8,-656.42C698.32,-645.58 819.66,-626.66 909.36,-612.68"/>
<polygon fill="black" stroke="black" points="909.97,-616.12 919.31,-611.13 908.89,-609.21 909.97,-616.12"/>
</g>
</g>
</svg>
